<!DOCTYPE svg PUBLIC "-//W3C//DTD SVG 1.1//EN" "http://www.w3.org/Graphics/SVG/1.1/DTD/svg11.dtd">
<!-- Uploaded to: SVG Repo, www.svgrepo.com, Transformed by: SVG Repo Mixer Tools -->
<svg xmlns="http://www.w3.org/2000/svg" aria-label="Kaggle" role="img" viewBox="-51.2 -51.2 614.40 614.40" width="256px" height="256px" fill="#000000">
<g id="SVGRepo_bgCarrier" stroke-width="0"/>
<g id="SVGRepo_tracerCarrier" stroke-linecap="round" stroke-linejoin="round"/>
<g id="SVGRepo_iconCarrier">
<rect width="512" height="512" rx="15%" fill="#517B94"/>
<path fill="#20BEFF" d="M106,103c-.06,.3-.3,.4-.8,.4h-8c-.5,0-.9-.2-1.3-.6L82.746,86.028l-3.655,3.477v13c0,.6-.3,.9-.9,.9h-6.152c-.6,0-.9-.3-.9-.9V44c0-.6,.3-.9,.9-.9h6.1c.6,0,.9,.3,.9,.9v36l15.692-15.87c.416-.415,.832-.624,1.248-.624h8.204c.356,0,.593,.149,.713,.445c.119,.4,.1,.6-.1,.8L88,81C106,102,106,103,106,103" transform="scale(5.5,5.5) translate(-40-30)"/>
</g>
</svg>